<?xml version="1.0" standalone="no"?><!DOCTYPE svg PUBLIC "-//W3C//DTD SVG 1.1//EN" "http://www.w3.org/Graphics/SVG/1.1/DTD/svg11.dtd">
<svg t="1781821405961" class="icon" viewBox="0 0 1024 1024" version="1.1" xmlns="http://www.w3.org/2000/svg" p-id="7945"
     width="48" height="48"><path d="M472.606327 39.677173c21.75845 0 39.357196 17.726737 39.357196 39.677173 0 21.886441-17.662742 39.677173-39.357196 39.677173H196.91397c-65.275349 0-118.135583 53.244206-118.135583 119.031519v475.998085c0 65.723317 52.860234 119.031519 118.135583 119.031519h191.85833c9.727307-0.063995 19.134637 3.583745 26.366121 10.11128l96.761106 87.673753 96.761106-87.673753a39.229205 39.229205 0 0 1 21.502468-9.919294l4.863653-0.255981h191.986321c65.275349 0 118.135583-53.244206 118.135583-119.031519V515.739254c0-21.886441 17.662742-39.677173 39.421191-39.677173 21.75845 0 39.357196 17.790732 39.357196 39.677173v198.385865c0 109.496198-88.185717 198.32187-196.91397 198.321869h-176.947392L538.329644 1013.687775a39.165209 39.165209 0 0 1-48.828521 3.135776l-3.839726-3.199772-111.928026-101.304782H196.91397a197.553924 197.553924 0 0 1-196.721984-189.74648L0 714.061123V237.999043C0 128.438849 88.185717 39.677173 196.91397 39.677173h275.692357z m157.492778 535.513845c21.75845 0 39.421191 17.790732 39.421192 39.677173 0 21.886441-17.662742 39.677173-39.421192 39.677173H275.692357a39.549182 39.549182 0 0 1-39.421191-39.677173c0-21.886441 17.662742-39.677173 39.421191-39.677173h354.406748z m-157.492778-218.224452c21.75845 0 39.357196 17.790732 39.357196 39.677173 0 21.950436-17.662742 39.677173-39.357196 39.677173H275.692357a39.549182 39.549182 0 0 1-39.421191-39.677173c0-21.886441 17.662742-39.677173 39.421191-39.677173h196.91397zM807.30248 0a39.805164 39.805164 0 0 1 39.357195 39.677173v138.870106h137.910174c19.966577 0 36.733383 15.038928 39.037219 35.005505l0.319977 4.607672c0 21.950436-17.662742 39.677173-39.357196 39.677173H846.659675V396.77173a39.549182 39.549182 0 0 1-34.813519 39.357196l-4.607672 0.319977a39.549182 39.549182 0 0 1-39.357196-39.677173v-138.870105H630.099105a39.485187 39.485187 0 0 1-39.037218-35.005506l-0.319977-4.671667a39.229205 39.229205 0 0 1 39.357195-39.677173H767.945284V39.677173c0-20.030573 14.974933-36.989365 34.749524-39.357196L807.30248 0z" fill="#1296db" p-id="7946"></path></svg>