<?xml version="1.0" standalone="no"?><!DOCTYPE svg PUBLIC "-//W3C//DTD SVG 1.1//EN" "http://www.w3.org/Graphics/SVG/1.1/DTD/svg11.dtd">
<svg t="1782316465270" class="icon" viewBox="0 0 1024 1024" version="1.1" xmlns="http://www.w3.org/2000/svg"
     p-id="13007"
     width="48" height="48"><path d="M832 96A96 96 0 0 1 928 192v104a32 32 0 0 1-64 0V192a32 32 0 0 0-32-32H192a32 32 0 0 0-32 32v640a32 32 0 0 0 32 32h640a32 32 0 0 0 32-32v-92.032a32 32 0 0 1 64 0V832a96 96 0 0 1-96 96H192A96 96 0 0 1 96 832V192A96 96 0 0 1 192 96h640zM617.344 361.344a32 32 0 1 1 45.248 45.312L589.248 480H896a32 32 0 0 1 0 64H589.248l73.344 73.344 4.16 5.056a32 32 0 0 1-44.352 44.352l-5.056-4.096-128-128a31.872 31.872 0 0 1-5.312-7.296 31.68 31.68 0 0 1-3.456-21.696 31.68 31.68 0 0 1 3.456-9.088 31.872 31.872 0 0 1 5.312-7.232l128-128z" fill="#1296db" p-id="13008"></path></svg>